<mxfile host="app.diagrams.net" modified="2021-01-11T12:39:12.360Z" agent="5.0 (Windows NT 10.0; Win64; x64) AppleWebKit/537.36 (KHTML, like Gecko) Chrome/86.0.4240.198 Safari/537.36" etag="s9r213aA9Buh-zsJmpb1" version="14.1.8" type="github">
  <diagram name="Page-1" id="929967ad-93f9-6ef4-fab6-5d389245f69c">
    <mxGraphModel dx="3426.5" dy="908" grid="1" gridSize="10" guides="1" tooltips="1" connect="1" arrows="1" fold="1" page="1" pageScale="1.5" pageWidth="1169" pageHeight="826" background="none" math="0" shadow="0">
      <root>
        <mxCell id="0" style=";html=1;" />
        <mxCell id="1" style=";html=1;" parent="0" />
        <mxCell id="MMuOSZYrTr1FR1vlzLBQ-1" value="AudioDeviceBuffer" style="swimlane;fontStyle=1;align=center;verticalAlign=top;childLayout=stackLayout;horizontal=1;startSize=26;horizontalStack=0;resizeParent=1;resizeParentMax=0;resizeLast=0;collapsible=1;marginBottom=0;" parent="1" vertex="1">
          <mxGeometry x="10" y="70" width="360" height="150" as="geometry" />
        </mxCell>
        <mxCell id="MMuOSZYrTr1FR1vlzLBQ-2" value="+ field: type" style="text;strokeColor=none;fillColor=none;align=left;verticalAlign=top;spacingLeft=4;spacingRight=4;overflow=hidden;rotatable=0;points=[[0,0.5],[1,0.5]];portConstraint=eastwest;" parent="MMuOSZYrTr1FR1vlzLBQ-1" vertex="1">
          <mxGeometry y="26" width="360" height="26" as="geometry" />
        </mxCell>
        <mxCell id="MMuOSZYrTr1FR1vlzLBQ-3" value="" style="line;strokeWidth=1;fillColor=none;align=left;verticalAlign=middle;spacingTop=-1;spacingLeft=3;spacingRight=3;rotatable=0;labelPosition=right;points=[];portConstraint=eastwest;" parent="MMuOSZYrTr1FR1vlzLBQ-1" vertex="1">
          <mxGeometry y="52" width="360" height="8" as="geometry" />
        </mxCell>
        <mxCell id="MMuOSZYrTr1FR1vlzLBQ-4" value="+RegisterAudioCallback(AudioTransport* audio_callback):in32_t&#xa;&#xa;+DeliverRecordedData:in32_t&#xa;&#xa;+RequestPlayoutData(size_t samples_per_channel)" style="text;strokeColor=none;fillColor=none;align=left;verticalAlign=top;spacingLeft=4;spacingRight=4;overflow=hidden;rotatable=0;points=[[0,0.5],[1,0.5]];portConstraint=eastwest;" parent="MMuOSZYrTr1FR1vlzLBQ-1" vertex="1">
          <mxGeometry y="60" width="360" height="90" as="geometry" />
        </mxCell>
        <mxCell id="MMuOSZYrTr1FR1vlzLBQ-5" value="&lt;p style=&quot;margin: 0px ; margin-top: 4px ; text-align: center&quot;&gt;&lt;i&gt;&amp;lt;&amp;lt;Interface&amp;gt;&amp;gt;&lt;/i&gt;&lt;br&gt;&lt;b&gt;AudioTransport&lt;/b&gt;&lt;/p&gt;&lt;hr size=&quot;1&quot;&gt;&lt;p style=&quot;margin: 0px ; margin-left: 4px&quot;&gt;+ field1: Type&lt;br&gt;+ field2: Type&lt;/p&gt;&lt;hr size=&quot;1&quot;&gt;&lt;p style=&quot;margin: 0px 4px ; line-height: 100%&quot;&gt;&lt;span style=&quot;font-family: &amp;#34;宋体&amp;#34; ; font-size: 10pt ; color: #1f6391&quot;&gt;+ RecordedDataIsAvailable(const void* audioSamples,&lt;/span&gt;&lt;/p&gt;&lt;p style=&quot;margin: 0px 4px ; line-height: 100%&quot;&gt;&lt;span style=&quot;font-family: &amp;#34;宋体&amp;#34; ; font-size: 10pt ; color: #1f6391&quot;&gt;&amp;nbsp; &amp;nbsp; &amp;nbsp; &amp;nbsp; &amp;nbsp; &amp;nbsp; &amp;nbsp; &amp;nbsp; &amp;nbsp;const size_t nSamples,&lt;/span&gt;&lt;/p&gt;&lt;p style=&quot;margin: 0px 4px ; line-height: 100%&quot;&gt;&lt;span style=&quot;font-family: &amp;#34;宋体&amp;#34; ; font-size: 10pt ; color: #1f6391&quot;&gt;&amp;nbsp; &amp;nbsp; &amp;nbsp; &amp;nbsp; &amp;nbsp; &amp;nbsp; &amp;nbsp; &amp;nbsp; &amp;nbsp;const size_t nBytesPerSample,&lt;/span&gt;&lt;/p&gt;&lt;p style=&quot;margin: 0px 4px ; line-height: 100%&quot;&gt;&lt;span style=&quot;font-family: &amp;#34;宋体&amp;#34; ; font-size: 10pt ; color: #1f6391&quot;&gt;&amp;nbsp; &amp;nbsp; &amp;nbsp; &amp;nbsp; &amp;nbsp; &amp;nbsp; &amp;nbsp; &amp;nbsp; &amp;nbsp;const size_t nChannels,&lt;/span&gt;&lt;/p&gt;&lt;p style=&quot;margin: 0px 4px ; line-height: 100%&quot;&gt;&lt;span style=&quot;font-family: &amp;#34;宋体&amp;#34; ; font-size: 10pt ; color: #1f6391&quot;&gt;&amp;nbsp; &amp;nbsp; &amp;nbsp; &amp;nbsp; &amp;nbsp; &amp;nbsp; &amp;nbsp; &amp;nbsp; &amp;nbsp;const uint32_t samplesPerSec,&lt;/span&gt;&lt;/p&gt;&lt;p style=&quot;margin: 0px 4px ; line-height: 100%&quot;&gt;&lt;span style=&quot;font-family: &amp;#34;宋体&amp;#34; ; font-size: 10pt ; color: #1f6391&quot;&gt;&amp;nbsp; &amp;nbsp; &amp;nbsp; &amp;nbsp; &amp;nbsp; &amp;nbsp; &amp;nbsp; &amp;nbsp; &amp;nbsp;const uint32_t totalDelayMS,&lt;/span&gt;&lt;/p&gt;&lt;p style=&quot;margin: 0px 4px ; line-height: 100%&quot;&gt;&lt;span style=&quot;font-family: &amp;#34;宋体&amp;#34; ; font-size: 10pt ; color: #1f6391&quot;&gt;&amp;nbsp; &amp;nbsp; &amp;nbsp; &amp;nbsp; &amp;nbsp; &amp;nbsp; &amp;nbsp; &amp;nbsp; &amp;nbsp;const int32_t clockDrift,&lt;/span&gt;&lt;/p&gt;&lt;p style=&quot;margin: 0px 4px ; line-height: 100%&quot;&gt;&lt;span style=&quot;font-family: &amp;#34;宋体&amp;#34; ; font-size: 10pt ; color: #1f6391&quot;&gt;&amp;nbsp; &amp;nbsp; &amp;nbsp; &amp;nbsp; &amp;nbsp; &amp;nbsp; &amp;nbsp; &amp;nbsp; &amp;nbsp;const uint32_t currentMicLevel,&lt;/span&gt;&lt;/p&gt;&lt;p style=&quot;margin: 0px 4px ; line-height: 100%&quot;&gt;&lt;span style=&quot;font-family: &amp;#34;宋体&amp;#34; ; font-size: 10pt ; color: #1f6391&quot;&gt;&amp;nbsp; &amp;nbsp; &amp;nbsp; &amp;nbsp; &amp;nbsp; &amp;nbsp; &amp;nbsp; &amp;nbsp; &amp;nbsp;const bool keyPressed,&lt;/span&gt;&lt;/p&gt;&lt;p style=&quot;margin: 0px 4px ; line-height: 100%&quot;&gt;&lt;span style=&quot;font-family: &amp;#34;宋体&amp;#34; ; font-size: 10pt ; color: #1f6391&quot;&gt;&amp;nbsp; &amp;nbsp; &amp;nbsp; &amp;nbsp; &amp;nbsp; &amp;nbsp; &amp;nbsp; &amp;nbsp; &amp;nbsp;uint32_t&amp;amp; newMicLevel):in32_t&lt;/span&gt;&lt;/p&gt;&lt;p style=&quot;margin: 0px 4px ; line-height: 100%&quot;&gt;&lt;span style=&quot;font-family: &amp;#34;宋体&amp;#34; ; font-size: 10pt ; color: #1f6391&quot;&gt;+ NeedMorePlayData(const size_t nSamples,&lt;/span&gt;&lt;/p&gt;&lt;p style=&quot;margin: 0px 4px ; line-height: 100%&quot;&gt;&lt;span style=&quot;font-family: &amp;#34;宋体&amp;#34; ; font-size: 10pt ; color: #1f6391&quot;&gt;&amp;nbsp; &amp;nbsp; &amp;nbsp; &amp;nbsp; &amp;nbsp; &amp;nbsp; &amp;nbsp;const size_t nBytesPerSample,&lt;/span&gt;&lt;/p&gt;&lt;p style=&quot;margin: 0px 4px ; line-height: 100%&quot;&gt;&lt;span style=&quot;font-family: &amp;#34;宋体&amp;#34; ; font-size: 10pt ; color: #1f6391&quot;&gt;&amp;nbsp; &amp;nbsp; &amp;nbsp; &amp;nbsp; &amp;nbsp; &amp;nbsp; &amp;nbsp;const size_t nChannels,&lt;/span&gt;&lt;/p&gt;&lt;p style=&quot;margin: 0px 4px ; line-height: 100%&quot;&gt;&lt;span style=&quot;font-family: &amp;#34;宋体&amp;#34; ; font-size: 10pt ; color: #1f6391&quot;&gt;&amp;nbsp; &amp;nbsp; &amp;nbsp; &amp;nbsp; &amp;nbsp; &amp;nbsp; &amp;nbsp;const uint32_t samplesPerSec,&lt;/span&gt;&lt;/p&gt;&lt;p style=&quot;margin: 0px 4px ; line-height: 100%&quot;&gt;&lt;span style=&quot;font-family: &amp;#34;宋体&amp;#34; ; font-size: 10pt ; color: #1f6391&quot;&gt;&amp;nbsp; &amp;nbsp; &amp;nbsp; &amp;nbsp; &amp;nbsp; &amp;nbsp; &amp;nbsp;void* audioSamples,&lt;/span&gt;&lt;/p&gt;&lt;p style=&quot;margin: 0px 4px ; line-height: 100%&quot;&gt;&lt;span style=&quot;font-family: &amp;#34;宋体&amp;#34; ; font-size: 10pt ; color: #1f6391&quot;&gt;&amp;nbsp; &amp;nbsp; &amp;nbsp; &amp;nbsp; &amp;nbsp; &amp;nbsp; &amp;nbsp;size_t&amp;amp; nSamplesOut,  // NOLINT&lt;/span&gt;&lt;/p&gt;&lt;p style=&quot;margin: 0px 4px ; line-height: 100%&quot;&gt;&lt;span style=&quot;font-family: &amp;#34;宋体&amp;#34; ; font-size: 10pt ; color: #1f6391&quot;&gt;&amp;nbsp; &amp;nbsp; &amp;nbsp; &amp;nbsp; &amp;nbsp; &amp;nbsp; &amp;nbsp;int64_t* elapsed_time_ms,&lt;/span&gt;&lt;/p&gt;&lt;p style=&quot;margin: 0px 4px ; line-height: 100%&quot;&gt;&lt;span style=&quot;font-family: &amp;#34;宋体&amp;#34; ; font-size: 10pt ; color: #1f6391&quot;&gt;&amp;nbsp; &amp;nbsp; &amp;nbsp; &amp;nbsp; &amp;nbsp; &amp;nbsp; &amp;nbsp;int64_t* ntp_time_ms):int32_t&lt;/span&gt;&lt;/p&gt;&lt;p style=&quot;margin: 0px 4px ; line-height: 100%&quot;&gt;&lt;span style=&quot;font-family: &amp;#34;宋体&amp;#34; ; font-size: 10pt ; color: #1f6391&quot;&gt;+ PullRenderData(int bits_per_sample,&lt;/span&gt;&lt;/p&gt;&lt;p style=&quot;margin: 0px 4px ; line-height: 100%&quot;&gt;&lt;span style=&quot;font-family: &amp;#34;宋体&amp;#34; ; font-size: 10pt ; color: #1f6391&quot;&gt;&amp;nbsp; &amp;nbsp; &amp;nbsp; &amp;nbsp; &amp;nbsp; &amp;nbsp;int sample_rate,&lt;/span&gt;&lt;/p&gt;&lt;p style=&quot;margin: 0px 4px ; line-height: 100%&quot;&gt;&lt;span style=&quot;font-family: &amp;#34;宋体&amp;#34; ; font-size: 10pt ; color: #1f6391&quot;&gt;&amp;nbsp; &amp;nbsp; &amp;nbsp; &amp;nbsp; &amp;nbsp; &amp;nbsp;size_t number_of_channels,&lt;/span&gt;&lt;/p&gt;&lt;p style=&quot;margin: 0px 4px ; line-height: 100%&quot;&gt;&lt;span style=&quot;font-family: &amp;#34;宋体&amp;#34; ; font-size: 10pt ; color: #1f6391&quot;&gt;&amp;nbsp; &amp;nbsp; &amp;nbsp; &amp;nbsp; &amp;nbsp; &amp;nbsp;size_t number_of_frames,&lt;/span&gt;&lt;/p&gt;&lt;p style=&quot;margin: 0px 4px ; line-height: 100%&quot;&gt;&lt;span style=&quot;font-family: &amp;#34;宋体&amp;#34; ; font-size: 10pt ; color: #1f6391&quot;&gt;&amp;nbsp; &amp;nbsp; &amp;nbsp; &amp;nbsp; &amp;nbsp; &amp;nbsp;void* audio_data,&lt;/span&gt;&lt;/p&gt;&lt;p style=&quot;margin: 0px 4px ; line-height: 100%&quot;&gt;&lt;span style=&quot;font-family: &amp;#34;宋体&amp;#34; ; font-size: 10pt ; color: #1f6391&quot;&gt;&amp;nbsp; &amp;nbsp; &amp;nbsp; &amp;nbsp; &amp;nbsp; &amp;nbsp;int64_t* elapsed_time_ms,&lt;/span&gt;&lt;/p&gt;&lt;p style=&quot;margin: 0px 4px ; line-height: 100%&quot;&gt;&lt;span style=&quot;font-family: &amp;#34;宋体&amp;#34; ; font-size: 10pt ; color: #1f6391&quot;&gt;&amp;nbsp; &amp;nbsp; &amp;nbsp; &amp;nbsp; &amp;nbsp; &amp;nbsp;int64_t* ntp_time_ms)&lt;/span&gt;&lt;/p&gt;" style="verticalAlign=top;align=left;overflow=fill;fontSize=12;fontFamily=Helvetica;html=1;" parent="1" vertex="1">
          <mxGeometry x="470" y="96" width="450" height="394" as="geometry" />
        </mxCell>
        <mxCell id="MMuOSZYrTr1FR1vlzLBQ-6" value="AudioTransportImpl" style="swimlane;fontStyle=1;align=center;verticalAlign=top;childLayout=stackLayout;horizontal=1;startSize=26;horizontalStack=0;resizeParent=1;resizeParentMax=0;resizeLast=0;collapsible=1;marginBottom=0;" parent="1" vertex="1">
          <mxGeometry x="210" y="560" width="160" height="86" as="geometry" />
        </mxCell>
        <mxCell id="MMuOSZYrTr1FR1vlzLBQ-7" value="+ field: type" style="text;strokeColor=none;fillColor=none;align=left;verticalAlign=top;spacingLeft=4;spacingRight=4;overflow=hidden;rotatable=0;points=[[0,0.5],[1,0.5]];portConstraint=eastwest;" parent="MMuOSZYrTr1FR1vlzLBQ-6" vertex="1">
          <mxGeometry y="26" width="160" height="26" as="geometry" />
        </mxCell>
        <mxCell id="MMuOSZYrTr1FR1vlzLBQ-8" value="" style="line;strokeWidth=1;fillColor=none;align=left;verticalAlign=middle;spacingTop=-1;spacingLeft=3;spacingRight=3;rotatable=0;labelPosition=right;points=[];portConstraint=eastwest;" parent="MMuOSZYrTr1FR1vlzLBQ-6" vertex="1">
          <mxGeometry y="52" width="160" height="8" as="geometry" />
        </mxCell>
        <mxCell id="MMuOSZYrTr1FR1vlzLBQ-9" value="+ method(type): type" style="text;strokeColor=none;fillColor=none;align=left;verticalAlign=top;spacingLeft=4;spacingRight=4;overflow=hidden;rotatable=0;points=[[0,0.5],[1,0.5]];portConstraint=eastwest;" parent="MMuOSZYrTr1FR1vlzLBQ-6" vertex="1">
          <mxGeometry y="60" width="160" height="26" as="geometry" />
        </mxCell>
        <mxCell id="MMuOSZYrTr1FR1vlzLBQ-10" value="" style="endArrow=block;dashed=1;endFill=0;endSize=12;html=1;entryX=0;entryY=0.75;entryDx=0;entryDy=0;exitX=0.5;exitY=0;exitDx=0;exitDy=0;" parent="1" source="MMuOSZYrTr1FR1vlzLBQ-6" target="MMuOSZYrTr1FR1vlzLBQ-5" edge="1">
          <mxGeometry width="160" relative="1" as="geometry">
            <mxPoint x="380" y="570" as="sourcePoint" />
            <mxPoint x="540" y="570" as="targetPoint" />
          </mxGeometry>
        </mxCell>
        <mxCell id="MMuOSZYrTr1FR1vlzLBQ-11" value="&lt;p style=&quot;margin: 0px ; margin-top: 4px ; text-align: center&quot;&gt;&lt;i&gt;&amp;lt;&amp;lt;Interface&amp;gt;&amp;gt;&lt;/i&gt;&lt;br&gt;&lt;b&gt;AudioMixer&lt;/b&gt;&lt;/p&gt;&lt;hr size=&quot;1&quot;&gt;&lt;p style=&quot;margin: 0px ; margin-left: 4px&quot;&gt;+ field1: Type&lt;br&gt;+ field2: Type&lt;/p&gt;&lt;hr size=&quot;1&quot;&gt;&lt;p style=&quot;margin: 0px ; margin-left: 4px&quot;&gt;+ AddSource(Source* audio_source): bool&lt;br&gt;+ RemoveSource(Source* audio_source): bool&lt;/p&gt;&lt;p style=&quot;margin: 0px 0px 0px 4px&quot;&gt;&lt;span style=&quot;font-size: 15px&quot;&gt;+&amp;nbsp;&lt;/span&gt;&lt;span&gt;&lt;font color=&quot;#33001a&quot; style=&quot;font-size: 12px&quot;&gt;Mix(size_t number_of_channels,&lt;/font&gt;&lt;/span&gt;&lt;/p&gt;&lt;p style=&quot;margin: 0px 0px 0px 4px&quot;&gt;&lt;font color=&quot;#33001a&quot; style=&quot;font-size: 12px&quot;&gt;&amp;nbsp; &amp;nbsp; &amp;nbsp; &amp;nbsp; &amp;nbsp; &amp;nbsp;AudioFrame* audio_frame_for_mixing)&lt;/font&gt;&lt;/p&gt;" style="verticalAlign=top;align=left;overflow=fill;fontSize=12;fontFamily=Helvetica;html=1;" parent="1" vertex="1">
          <mxGeometry x="-610" y="280" width="300" height="160" as="geometry" />
        </mxCell>
        <mxCell id="MMuOSZYrTr1FR1vlzLBQ-12" value="AudioMixerImpl" style="swimlane;fontStyle=1;align=center;verticalAlign=top;childLayout=stackLayout;horizontal=1;startSize=26;horizontalStack=0;resizeParent=1;resizeParentMax=0;resizeLast=0;collapsible=1;marginBottom=0;" parent="1" vertex="1">
          <mxGeometry x="-600" y="510" width="160" height="86" as="geometry" />
        </mxCell>
        <mxCell id="MMuOSZYrTr1FR1vlzLBQ-13" value="+ field: type" style="text;strokeColor=none;fillColor=none;align=left;verticalAlign=top;spacingLeft=4;spacingRight=4;overflow=hidden;rotatable=0;points=[[0,0.5],[1,0.5]];portConstraint=eastwest;" parent="MMuOSZYrTr1FR1vlzLBQ-12" vertex="1">
          <mxGeometry y="26" width="160" height="26" as="geometry" />
        </mxCell>
        <mxCell id="MMuOSZYrTr1FR1vlzLBQ-14" value="" style="line;strokeWidth=1;fillColor=none;align=left;verticalAlign=middle;spacingTop=-1;spacingLeft=3;spacingRight=3;rotatable=0;labelPosition=right;points=[];portConstraint=eastwest;" parent="MMuOSZYrTr1FR1vlzLBQ-12" vertex="1">
          <mxGeometry y="52" width="160" height="8" as="geometry" />
        </mxCell>
        <mxCell id="MMuOSZYrTr1FR1vlzLBQ-15" value="+ method(type): type" style="text;strokeColor=none;fillColor=none;align=left;verticalAlign=top;spacingLeft=4;spacingRight=4;overflow=hidden;rotatable=0;points=[[0,0.5],[1,0.5]];portConstraint=eastwest;" parent="MMuOSZYrTr1FR1vlzLBQ-12" vertex="1">
          <mxGeometry y="60" width="160" height="26" as="geometry" />
        </mxCell>
        <mxCell id="MMuOSZYrTr1FR1vlzLBQ-16" value="" style="endArrow=block;dashed=1;endFill=0;endSize=12;html=1;exitX=0.5;exitY=0;exitDx=0;exitDy=0;entryX=0.25;entryY=1;entryDx=0;entryDy=0;" parent="1" source="MMuOSZYrTr1FR1vlzLBQ-12" target="MMuOSZYrTr1FR1vlzLBQ-11" edge="1">
          <mxGeometry width="160" relative="1" as="geometry">
            <mxPoint x="-580" y="500" as="sourcePoint" />
            <mxPoint x="-420" y="500" as="targetPoint" />
          </mxGeometry>
        </mxCell>
        <mxCell id="MMuOSZYrTr1FR1vlzLBQ-17" value="AudioState&#xa;webrtc::internal" style="swimlane;fontStyle=1;align=center;verticalAlign=top;childLayout=stackLayout;horizontal=1;startSize=40;horizontalStack=0;resizeParent=1;resizeParentMax=0;resizeLast=0;collapsible=1;marginBottom=0;" parent="1" vertex="1">
          <mxGeometry x="-210" y="730" width="450" height="230" as="geometry" />
        </mxCell>
        <mxCell id="MMuOSZYrTr1FR1vlzLBQ-18" value="- config_: const webrtc::AudioState::Config&#xa;- audio_transport_: AudioTransportImpl&#xa;- receiving_streams_:  std::unordered_set&lt;webrtc::AudioReceiveStream*&gt;&#xa;- sending_streams_: std::map&lt;webrtc::AudioSendStream*, StreamProperties&gt;" style="text;strokeColor=none;fillColor=none;align=left;verticalAlign=top;spacingLeft=4;spacingRight=4;overflow=hidden;rotatable=0;points=[[0,0.5],[1,0.5]];portConstraint=eastwest;" parent="MMuOSZYrTr1FR1vlzLBQ-17" vertex="1">
          <mxGeometry y="40" width="450" height="66" as="geometry" />
        </mxCell>
        <mxCell id="MMuOSZYrTr1FR1vlzLBQ-19" value="" style="line;strokeWidth=1;fillColor=none;align=left;verticalAlign=middle;spacingTop=-1;spacingLeft=3;spacingRight=3;rotatable=0;labelPosition=right;points=[];portConstraint=eastwest;" parent="MMuOSZYrTr1FR1vlzLBQ-17" vertex="1">
          <mxGeometry y="106" width="450" height="8" as="geometry" />
        </mxCell>
        <mxCell id="MMuOSZYrTr1FR1vlzLBQ-20" value="+ AddReceivingStream(webrtc::AudioReceiveStream* stream)&#xa;+ RemoveReceivingStream(webrtc::AudioReceiveStream* stream)&#xa;+ AddSendingStream(webrtc::AudioSendStream* stream,&#xa;                                   int sample_rate_hz,&#xa;                                   size_t num_channels)&#xa;+ RemoveSendingStream(webrtc::AudioSendStream* stream)&#xa;" style="text;strokeColor=none;fillColor=none;align=left;verticalAlign=top;spacingLeft=4;spacingRight=4;overflow=hidden;rotatable=0;points=[[0,0.5],[1,0.5]];portConstraint=eastwest;" parent="MMuOSZYrTr1FR1vlzLBQ-17" vertex="1">
          <mxGeometry y="114" width="450" height="116" as="geometry" />
        </mxCell>
        <mxCell id="MMuOSZYrTr1FR1vlzLBQ-24" value="" style="endArrow=open;endFill=1;endSize=12;html=1;entryX=0;entryY=0.5;entryDx=0;entryDy=0;exitX=0.5;exitY=0;exitDx=0;exitDy=0;" parent="1" source="MMuOSZYrTr1FR1vlzLBQ-17" target="MMuOSZYrTr1FR1vlzLBQ-7" edge="1">
          <mxGeometry width="160" relative="1" as="geometry">
            <mxPoint x="20" y="700" as="sourcePoint" />
            <mxPoint x="180" y="700" as="targetPoint" />
          </mxGeometry>
        </mxCell>
        <mxCell id="MMuOSZYrTr1FR1vlzLBQ-25" value="webrtc::AudioState::Config" style="swimlane;fontStyle=0;childLayout=stackLayout;horizontal=1;startSize=26;fillColor=none;horizontalStack=0;resizeParent=1;resizeParentMax=0;resizeLast=0;collapsible=1;marginBottom=0;" parent="1" vertex="1">
          <mxGeometry x="-300" y="530" width="420" height="104" as="geometry" />
        </mxCell>
        <mxCell id="MMuOSZYrTr1FR1vlzLBQ-26" value="+ audio_mixer: rtc::scoped_refptr&lt;AudioMixer&gt;" style="text;strokeColor=none;fillColor=none;align=left;verticalAlign=top;spacingLeft=4;spacingRight=4;overflow=hidden;rotatable=0;points=[[0,0.5],[1,0.5]];portConstraint=eastwest;" parent="MMuOSZYrTr1FR1vlzLBQ-25" vertex="1">
          <mxGeometry y="26" width="420" height="26" as="geometry" />
        </mxCell>
        <mxCell id="MMuOSZYrTr1FR1vlzLBQ-27" value="+ audio_processing: rtc::scoped_refptr&lt;webrtc::AudioProcessing&gt;" style="text;strokeColor=none;fillColor=none;align=left;verticalAlign=top;spacingLeft=4;spacingRight=4;overflow=hidden;rotatable=0;points=[[0,0.5],[1,0.5]];portConstraint=eastwest;" parent="MMuOSZYrTr1FR1vlzLBQ-25" vertex="1">
          <mxGeometry y="52" width="420" height="26" as="geometry" />
        </mxCell>
        <mxCell id="MMuOSZYrTr1FR1vlzLBQ-28" value="+ audio_device_module: rtc::scoped_refptr&lt;webrtc::AudioDeviceModule&gt;" style="text;strokeColor=none;fillColor=none;align=left;verticalAlign=top;spacingLeft=4;spacingRight=4;overflow=hidden;rotatable=0;points=[[0,0.5],[1,0.5]];portConstraint=eastwest;" parent="MMuOSZYrTr1FR1vlzLBQ-25" vertex="1">
          <mxGeometry y="78" width="420" height="26" as="geometry" />
        </mxCell>
        <mxCell id="MMuOSZYrTr1FR1vlzLBQ-29" value="" style="endArrow=open;endFill=1;endSize=12;html=1;exitX=0.25;exitY=0;exitDx=0;exitDy=0;" parent="1" source="MMuOSZYrTr1FR1vlzLBQ-17" target="MMuOSZYrTr1FR1vlzLBQ-28" edge="1">
          <mxGeometry width="160" relative="1" as="geometry">
            <mxPoint x="-390" y="710" as="sourcePoint" />
            <mxPoint x="-230" y="710" as="targetPoint" />
          </mxGeometry>
        </mxCell>
        <mxCell id="MMuOSZYrTr1FR1vlzLBQ-30" value="1" style="endArrow=open;html=1;endSize=12;startArrow=diamondThin;startSize=14;startFill=0;edgeStyle=orthogonalEdgeStyle;align=left;verticalAlign=bottom;entryX=1;entryY=0.5;entryDx=0;entryDy=0;exitX=0;exitY=0.5;exitDx=0;exitDy=0;" parent="1" source="MMuOSZYrTr1FR1vlzLBQ-26" target="MMuOSZYrTr1FR1vlzLBQ-13" edge="1">
          <mxGeometry x="-1" y="3" relative="1" as="geometry">
            <mxPoint x="-680" y="660" as="sourcePoint" />
            <mxPoint x="-520" y="660" as="targetPoint" />
          </mxGeometry>
        </mxCell>
        <mxCell id="MMuOSZYrTr1FR1vlzLBQ-31" value="webrtc::internal::AudioReceiveStream" style="swimlane;fontStyle=1;align=center;verticalAlign=top;childLayout=stackLayout;horizontal=1;startSize=26;horizontalStack=0;resizeParent=1;resizeParentMax=0;resizeLast=0;collapsible=1;marginBottom=0;" parent="1" vertex="1">
          <mxGeometry x="520" y="802" width="290" height="86" as="geometry" />
        </mxCell>
        <mxCell id="MMuOSZYrTr1FR1vlzLBQ-32" value="+ field: type" style="text;strokeColor=none;fillColor=none;align=left;verticalAlign=top;spacingLeft=4;spacingRight=4;overflow=hidden;rotatable=0;points=[[0,0.5],[1,0.5]];portConstraint=eastwest;" parent="MMuOSZYrTr1FR1vlzLBQ-31" vertex="1">
          <mxGeometry y="26" width="290" height="26" as="geometry" />
        </mxCell>
        <mxCell id="MMuOSZYrTr1FR1vlzLBQ-33" value="" style="line;strokeWidth=1;fillColor=none;align=left;verticalAlign=middle;spacingTop=-1;spacingLeft=3;spacingRight=3;rotatable=0;labelPosition=right;points=[];portConstraint=eastwest;" parent="MMuOSZYrTr1FR1vlzLBQ-31" vertex="1">
          <mxGeometry y="52" width="290" height="8" as="geometry" />
        </mxCell>
        <mxCell id="MMuOSZYrTr1FR1vlzLBQ-34" value="+ method(type): type" style="text;strokeColor=none;fillColor=none;align=left;verticalAlign=top;spacingLeft=4;spacingRight=4;overflow=hidden;rotatable=0;points=[[0,0.5],[1,0.5]];portConstraint=eastwest;" parent="MMuOSZYrTr1FR1vlzLBQ-31" vertex="1">
          <mxGeometry y="60" width="290" height="26" as="geometry" />
        </mxCell>
        <mxCell id="9ETkabDTrOV-CdOB_ELY-2" value="&lt;p style=&quot;margin: 0px ; margin-top: 4px ; text-align: center&quot;&gt;&lt;i&gt;&amp;lt;&amp;lt;Interface&amp;gt;&amp;gt;&lt;/i&gt;&lt;br&gt;&lt;b&gt;webrtc::AudioState&lt;/b&gt;&lt;/p&gt;&lt;hr size=&quot;1&quot;&gt;&lt;p style=&quot;margin: 0px ; margin-left: 4px&quot;&gt;+ field1: Type&lt;br&gt;+ field2: Type&lt;/p&gt;&lt;hr size=&quot;1&quot;&gt;&lt;p style=&quot;margin: 0px ; margin-left: 4px&quot;&gt;+ audio_processing(): AudioProcessing*&lt;br&gt;+ audio_transport(): AudioTransport*&lt;/p&gt;" style="verticalAlign=top;align=left;overflow=fill;fontSize=12;fontFamily=Helvetica;html=1;" vertex="1" parent="1">
          <mxGeometry x="-700" y="748" width="260" height="140" as="geometry" />
        </mxCell>
        <mxCell id="9ETkabDTrOV-CdOB_ELY-3" value="webrtc::call" style="swimlane;fontStyle=1;align=center;verticalAlign=top;childLayout=stackLayout;horizontal=1;startSize=26;horizontalStack=0;resizeParent=1;resizeParentMax=0;resizeLast=0;collapsible=1;marginBottom=0;" vertex="1" parent="1">
          <mxGeometry x="-910" y="1080" width="570" height="110" as="geometry" />
        </mxCell>
        <mxCell id="9ETkabDTrOV-CdOB_ELY-4" value="+ field: type" style="text;strokeColor=none;fillColor=none;align=left;verticalAlign=top;spacingLeft=4;spacingRight=4;overflow=hidden;rotatable=0;points=[[0,0.5],[1,0.5]];portConstraint=eastwest;" vertex="1" parent="9ETkabDTrOV-CdOB_ELY-3">
          <mxGeometry y="26" width="570" height="26" as="geometry" />
        </mxCell>
        <mxCell id="9ETkabDTrOV-CdOB_ELY-5" value="" style="line;strokeWidth=1;fillColor=none;align=left;verticalAlign=middle;spacingTop=-1;spacingLeft=3;spacingRight=3;rotatable=0;labelPosition=right;points=[];portConstraint=eastwest;" vertex="1" parent="9ETkabDTrOV-CdOB_ELY-3">
          <mxGeometry y="52" width="570" height="8" as="geometry" />
        </mxCell>
        <mxCell id="9ETkabDTrOV-CdOB_ELY-6" value="+ CreateAudioReceiveStream(const AudioReceiveStream::Config&amp; config): AudioReceiveStream*&#xa;+ DestroyAudioReceiveStream(AudioReceiveStream* receive_stream)" style="text;strokeColor=none;fillColor=none;align=left;verticalAlign=top;spacingLeft=4;spacingRight=4;overflow=hidden;rotatable=0;points=[[0,0.5],[1,0.5]];portConstraint=eastwest;" vertex="1" parent="9ETkabDTrOV-CdOB_ELY-3">
          <mxGeometry y="60" width="570" height="50" as="geometry" />
        </mxCell>
        <mxCell id="9ETkabDTrOV-CdOB_ELY-7" value="&lt;p style=&quot;margin: 0px ; margin-top: 4px ; text-align: center&quot;&gt;&lt;i&gt;&amp;lt;&amp;lt;Interface&amp;gt;&amp;gt;&lt;/i&gt;&lt;br&gt;&lt;b&gt;webrtc::VoiceEngineInterface&lt;/b&gt;&lt;/p&gt;&lt;hr size=&quot;1&quot;&gt;&lt;p style=&quot;margin: 0px ; margin-left: 4px&quot;&gt;+ field1: Type&lt;br&gt;+ field2: Type&lt;/p&gt;&lt;hr size=&quot;1&quot;&gt;&lt;p style=&quot;margin: 0px ; margin-left: 4px&quot;&gt;+&amp;nbsp;&lt;span&gt;CreateMediaChannel(&lt;/span&gt;&lt;/p&gt;&lt;p style=&quot;margin: 0px ; margin-left: 4px&quot;&gt;&amp;nbsp; &amp;nbsp; &amp;nbsp; webrtc::Call* call,&lt;/p&gt;&lt;p style=&quot;margin: 0px ; margin-left: 4px&quot;&gt;&amp;nbsp; &amp;nbsp; &amp;nbsp; const MediaConfig&amp;amp; config,&lt;/p&gt;&lt;p style=&quot;margin: 0px ; margin-left: 4px&quot;&gt;&amp;nbsp; &amp;nbsp; &amp;nbsp; const AudioOptions&amp;amp; options,&lt;/p&gt;&lt;p style=&quot;margin: 0px ; margin-left: 4px&quot;&gt;&amp;nbsp; &amp;nbsp; &amp;nbsp; const webrtc::CryptoOptions&amp;amp; crypto_options): VoiceMediaChannel*&lt;/p&gt;&lt;p style=&quot;margin: 0px ; margin-left: 4px&quot;&gt;&lt;br&gt;&lt;/p&gt;" style="verticalAlign=top;align=left;overflow=fill;fontSize=12;fontFamily=Helvetica;html=1;" vertex="1" parent="1">
          <mxGeometry x="400" y="1260" width="440" height="170" as="geometry" />
        </mxCell>
        <mxCell id="9ETkabDTrOV-CdOB_ELY-9" value="webrtc::WebrtcVoiceEngine" style="swimlane;fontStyle=1;align=center;verticalAlign=top;childLayout=stackLayout;horizontal=1;startSize=26;horizontalStack=0;resizeParent=1;resizeParentMax=0;resizeLast=0;collapsible=1;marginBottom=0;" vertex="1" parent="1">
          <mxGeometry x="-270" y="1320" width="560" height="398" as="geometry" />
        </mxCell>
        <mxCell id="9ETkabDTrOV-CdOB_ELY-10" value="+ adm: rtc::scoped_refptr&lt;webrtc::AudioDeviceModule&gt;&#xa;+ audio_mixer_:  rtc::scoped_refptr&lt;webrtc::AudioMixer&gt;&#xa;+ apm:  rtc::scoped_refptr&lt;webrtc::AudioMixer&gt;&#xa;+ audio_state_: rtc::scoped_refptr&lt;webrtc::AudioState&gt;&#xa;+ channels: std::vector&lt;WebRtcVoiceMediaChannel*&gt;&#xa;" style="text;strokeColor=none;fillColor=none;align=left;verticalAlign=top;spacingLeft=4;spacingRight=4;overflow=hidden;rotatable=0;points=[[0,0.5],[1,0.5]];portConstraint=eastwest;" vertex="1" parent="9ETkabDTrOV-CdOB_ELY-9">
          <mxGeometry y="26" width="560" height="94" as="geometry" />
        </mxCell>
        <mxCell id="9ETkabDTrOV-CdOB_ELY-11" value="" style="line;strokeWidth=1;fillColor=none;align=left;verticalAlign=middle;spacingTop=-1;spacingLeft=3;spacingRight=3;rotatable=0;labelPosition=right;points=[];portConstraint=eastwest;" vertex="1" parent="9ETkabDTrOV-CdOB_ELY-9">
          <mxGeometry y="120" width="560" height="8" as="geometry" />
        </mxCell>
        <mxCell id="9ETkabDTrOV-CdOB_ELY-12" value="+ WebRtcVoiceEngine(&#xa;      webrtc::AudioDeviceModule* adm,&#xa;      const rtc::scoped_refptr&lt;webrtc::AudioEncoderFactory&gt;&amp; encoder_factory,&#xa;      const rtc::scoped_refptr&lt;webrtc::AudioDecoderFactory&gt;&amp; decoder_factory,&#xa;      rtc::scoped_refptr&lt;webrtc::AudioMixer&gt; audio_mixer,&#xa;      rtc::scoped_refptr&lt;webrtc::AudioProcessing&gt; audio_processing)&#xa;+ GetAudioState(): rtc::scoped_refptr&lt;webrtc::AudioState&gt;&#xa;+ CreateMediaChannel(&#xa;      webrtc::Call* call,&#xa;      const MediaConfig&amp; config,&#xa;      const AudioOptions&amp; options,&#xa;      const webrtc::CryptoOptions&amp; crypto_options): VoiceMediaChannel*&#xa;+ RegisterChannel(WebRtcVoiceMediaChannel* channel)&#xa;+ UnregisterChannel(WebRtcVoiceMediaChannel* channel)" style="text;strokeColor=none;fillColor=none;align=left;verticalAlign=top;spacingLeft=4;spacingRight=4;overflow=hidden;rotatable=0;points=[[0,0.5],[1,0.5]];portConstraint=eastwest;" vertex="1" parent="9ETkabDTrOV-CdOB_ELY-9">
          <mxGeometry y="128" width="560" height="270" as="geometry" />
        </mxCell>
        <mxCell id="9ETkabDTrOV-CdOB_ELY-13" value="" style="endArrow=block;dashed=1;endFill=0;endSize=12;html=1;entryX=0;entryY=0.5;entryDx=0;entryDy=0;exitX=1;exitY=0.5;exitDx=0;exitDy=0;" edge="1" parent="1" source="9ETkabDTrOV-CdOB_ELY-10" target="9ETkabDTrOV-CdOB_ELY-7">
          <mxGeometry width="160" relative="1" as="geometry">
            <mxPoint x="330" y="1540" as="sourcePoint" />
            <mxPoint x="490" y="1540" as="targetPoint" />
          </mxGeometry>
        </mxCell>
        <mxCell id="9ETkabDTrOV-CdOB_ELY-14" value="&lt;p style=&quot;margin: 0px ; margin-top: 4px ; text-align: center&quot;&gt;&lt;i&gt;&amp;lt;&amp;lt;Interface&amp;gt;&amp;gt;&lt;/i&gt;&lt;br&gt;&lt;b&gt;webrtc::MediaChannel::NetworkInterface&lt;/b&gt;&lt;/p&gt;&lt;hr size=&quot;1&quot;&gt;&lt;p style=&quot;margin: 0px ; margin-left: 4px&quot;&gt;+ field1: Type&lt;br&gt;+ field2: Type&lt;/p&gt;&lt;hr size=&quot;1&quot;&gt;&lt;p style=&quot;margin: 0px ; margin-left: 4px&quot;&gt;+ SendPacket(rtc::CopyOnWriteBuffer* packet,&lt;/p&gt;&lt;p style=&quot;margin: 0px ; margin-left: 4px&quot;&gt;&amp;nbsp; &amp;nbsp; &amp;nbsp; &amp;nbsp; &amp;nbsp; &amp;nbsp; &amp;nbsp; &amp;nbsp; &amp;nbsp; &amp;nbsp; &amp;nbsp; &amp;nbsp; const rtc::PacketOptions&amp;amp; options): bool&lt;/p&gt;&lt;p style=&quot;margin: 0px ; margin-left: 4px&quot;&gt;+ SendRtcp(rtc::CopyOnWriteBuffer* packet,&lt;/p&gt;&lt;p style=&quot;margin: 0px ; margin-left: 4px&quot;&gt;&amp;nbsp; &amp;nbsp; &amp;nbsp; &amp;nbsp; &amp;nbsp; &amp;nbsp; &amp;nbsp; &amp;nbsp; &amp;nbsp; &amp;nbsp; &amp;nbsp; const rtc::PacketOptions&amp;amp; options): bool&lt;/p&gt;&lt;p style=&quot;margin: 0px ; margin-left: 4px&quot;&gt;+ SetOption(SocketType type,&lt;/p&gt;&lt;p style=&quot;margin: 0px ; margin-left: 4px&quot;&gt;&amp;nbsp; &amp;nbsp; &amp;nbsp; &amp;nbsp; &amp;nbsp; &amp;nbsp; &amp;nbsp; &amp;nbsp; &amp;nbsp; &amp;nbsp; &amp;nbsp; rtc::Socket::Option opt,&lt;/p&gt;&lt;p style=&quot;margin: 0px ; margin-left: 4px&quot;&gt;&amp;nbsp; &amp;nbsp; &amp;nbsp; &amp;nbsp; &amp;nbsp; &amp;nbsp; &amp;nbsp; &amp;nbsp; &amp;nbsp; &amp;nbsp; &amp;nbsp; int option): int&lt;/p&gt;" style="verticalAlign=top;align=left;overflow=fill;fontSize=12;fontFamily=Helvetica;html=1;" vertex="1" parent="1">
          <mxGeometry x="1150" y="110" width="530" height="200" as="geometry" />
        </mxCell>
        <mxCell id="9ETkabDTrOV-CdOB_ELY-16" value="&lt;p style=&quot;margin: 0px ; margin-top: 4px ; text-align: center&quot;&gt;&lt;i&gt;&amp;lt;&amp;lt;Interface&amp;gt;&amp;gt;&lt;/i&gt;&lt;br&gt;&lt;b&gt;webrtc::MediaChannel&lt;/b&gt;&lt;/p&gt;&lt;hr size=&quot;1&quot;&gt;&lt;p style=&quot;margin: 0px ; margin-left: 4px&quot;&gt;+ field1: Type&lt;br&gt;+ field2: Type&lt;/p&gt;&lt;hr size=&quot;1&quot;&gt;&lt;p style=&quot;margin: 0px ; margin-left: 4px&quot;&gt;+ method1(Type): Type&lt;br&gt;+ method2(Type, Type): Type&lt;/p&gt;" style="verticalAlign=top;align=left;overflow=fill;fontSize=12;fontFamily=Helvetica;html=1;" vertex="1" parent="1">
          <mxGeometry x="1150" y="380" width="340" height="130" as="geometry" />
        </mxCell>
        <mxCell id="9ETkabDTrOV-CdOB_ELY-17" value="webrtc::WebrtcVoiceMediaChannel" style="swimlane;fontStyle=1;align=center;verticalAlign=top;childLayout=stackLayout;horizontal=1;startSize=26;horizontalStack=0;resizeParent=1;resizeParentMax=0;resizeLast=0;collapsible=1;marginBottom=0;" vertex="1" parent="1">
          <mxGeometry x="1040" y="662" width="340" height="86" as="geometry" />
        </mxCell>
        <mxCell id="9ETkabDTrOV-CdOB_ELY-18" value="+ field: type" style="text;strokeColor=none;fillColor=none;align=left;verticalAlign=top;spacingLeft=4;spacingRight=4;overflow=hidden;rotatable=0;points=[[0,0.5],[1,0.5]];portConstraint=eastwest;" vertex="1" parent="9ETkabDTrOV-CdOB_ELY-17">
          <mxGeometry y="26" width="340" height="26" as="geometry" />
        </mxCell>
        <mxCell id="9ETkabDTrOV-CdOB_ELY-19" value="" style="line;strokeWidth=1;fillColor=none;align=left;verticalAlign=middle;spacingTop=-1;spacingLeft=3;spacingRight=3;rotatable=0;labelPosition=right;points=[];portConstraint=eastwest;" vertex="1" parent="9ETkabDTrOV-CdOB_ELY-17">
          <mxGeometry y="52" width="340" height="8" as="geometry" />
        </mxCell>
        <mxCell id="9ETkabDTrOV-CdOB_ELY-20" value="+ method(type): type" style="text;strokeColor=none;fillColor=none;align=left;verticalAlign=top;spacingLeft=4;spacingRight=4;overflow=hidden;rotatable=0;points=[[0,0.5],[1,0.5]];portConstraint=eastwest;" vertex="1" parent="9ETkabDTrOV-CdOB_ELY-17">
          <mxGeometry y="60" width="340" height="26" as="geometry" />
        </mxCell>
        <mxCell id="9ETkabDTrOV-CdOB_ELY-21" value="" style="endArrow=block;dashed=1;endFill=0;endSize=12;html=1;exitX=0;exitY=0;exitDx=0;exitDy=0;" edge="1" parent="1" source="9ETkabDTrOV-CdOB_ELY-17" target="MMuOSZYrTr1FR1vlzLBQ-5">
          <mxGeometry width="160" relative="1" as="geometry">
            <mxPoint x="890" y="640" as="sourcePoint" />
            <mxPoint x="1050" y="640" as="targetPoint" />
          </mxGeometry>
        </mxCell>
        <mxCell id="9ETkabDTrOV-CdOB_ELY-23" value="" style="endArrow=block;dashed=1;endFill=0;endSize=12;html=1;entryX=0.25;entryY=1;entryDx=0;entryDy=0;exitX=0.5;exitY=0;exitDx=0;exitDy=0;" edge="1" parent="1" source="9ETkabDTrOV-CdOB_ELY-17" target="9ETkabDTrOV-CdOB_ELY-16">
          <mxGeometry width="160" relative="1" as="geometry">
            <mxPoint x="1270" y="670" as="sourcePoint" />
            <mxPoint x="1430" y="670" as="targetPoint" />
          </mxGeometry>
        </mxCell>
      </root>
    </mxGraphModel>
  </diagram>
</mxfile>
